<svg xmlns="http://www.w3.org/2000/svg" viewBox="0 0 772 250">
  <!-- Background - Ncloud Green -->
  <rect width="772" height="250" fill="#03C75A"/>

  <!-- Decorative shapes -->
  <circle cx="50" cy="200" r="100" fill="#02B350" opacity="0.5"/>
  <circle cx="700" cy="50" r="120" fill="#04D862" opacity="0.4"/>
  <circle cx="750" cy="200" r="80" fill="#02B350" opacity="0.3"/>

  <!-- Icon area - Cloud with envelope -->
  <g transform="translate(40, 35)">
    <!-- Cloud -->
    <path d="M130 60c0-1.2-.1-2.4-.3-3.6 1.1-2.9 1.7-6 1.7-9.2 0-13.6-11-24.7-24.7-24.7-8.6 0-16.2 4.4-20.7 11.1-2.2-1-4.7-1.5-7.3-1.5-10.7 0-19.4 8.7-19.4 19.4 0 1.4.1 2.7.5 4C51.9 58 47 64.4 47 72c0 9.7 7.9 17.6 17.6 17.6h59c11 0 20-9 20-19.8 0-3.9-1.1-7.5-3-10.6z"
          fill="#ffffff" transform="translate(10, 15)"/>

    <!-- Envelope -->
    <g transform="translate(25, 95)">
      <rect x="0" y="12" width="130" height="78" rx="8" fill="#ffffff"/>
      <path d="M8 25 L65 68 L122 25" fill="none" stroke="#e0e0e0" stroke-width="2"/>
      <path d="M0 20 Q0 12 8 12 L122 12 Q130 12 130 20 L65 65 Z" fill="#f8f8f8"/>
      <path d="M5 17 L65 58 L125 17" fill="none" stroke="#03C75A" stroke-width="3" stroke-linecap="round"/>
      <circle cx="112" cy="0" r="20" fill="#1EC800"/>
      <path d="M104 0 L120 0 M115 -5 L121 0 L115 5" stroke="#fff" stroke-width="3" stroke-linecap="round"/>
    </g>
  </g>

  <!-- Text -->
  <text x="230" y="100" font-family="Arial, Helvetica, sans-serif" font-size="38" font-weight="bold" fill="#ffffff">Ncloud Outbound Mailer</text>
  <text x="230" y="140" font-family="Arial, Helvetica, sans-serif" font-size="18" fill="#ffffff" opacity="0.95">Send WordPress emails through Ncloud Cloud Outbound Mailer API</text>

  <!-- Feature tags -->
  <g transform="translate(230, 165)" font-family="Arial, sans-serif" font-size="13" fill="#ffffff">
    <rect x="0" y="0" width="70" height="28" rx="14" fill="#ffffff" fill-opacity="0.2"/>
    <text x="35" y="19" text-anchor="middle">Reliable</text>

    <rect x="80" y="0" width="55" height="28" rx="14" fill="#ffffff" fill-opacity="0.2"/>
    <text x="107" y="19" text-anchor="middle">Fast</text>

    <rect x="145" y="0" width="65" height="28" rx="14" fill="#ffffff" fill-opacity="0.2"/>
    <text x="177" y="19" text-anchor="middle">Secure</text>

    <rect x="220" y="0" width="95" height="28" rx="14" fill="#ffffff" fill-opacity="0.2"/>
    <text x="267" y="19" text-anchor="middle">Multi-region</text>
  </g>
</svg>
